<svg width="800" height="400" xmlns="http://www.w3.org/2000/svg">
  <defs>
    <linearGradient id="skyGradient" x1="0%" y1="0%" x2="0%" y2="100%">
      <stop offset="0%" style="stop-color:#4A90E2;stop-opacity:1" />
      <stop offset="100%" style="stop-color:#87CEEB;stop-opacity:1" />
    </linearGradient>
  </defs>
  
  <!-- Sky -->
  <rect width="800" height="400" fill="url(#skyGradient)"/>
  
  <!-- Buildings -->
  <rect x="50" y="200" width="100" height="200" fill="#2C3E50" opacity="0.8"/>
  <rect x="170" y="150" width="80" height="250" fill="#34495E" opacity="0.8"/>
  <rect x="270" y="180" width="120" height="220" fill="#2C3E50" opacity="0.8"/>
  <rect x="410" y="140" width="90" height="260" fill="#34495E" opacity="0.8"/>
  <rect x="520" y="170" width="110" height="230" fill="#2C3E50" opacity="0.8"/>
  <rect x="650" y="190" width="100" height="210" fill="#34495E" opacity="0.8"/>
  
  <!-- Windows -->
  <rect x="60" y="210" width="15" height="15" fill="#FFD700" opacity="0.6"/>
  <rect x="80" y="210" width="15" height="15" fill="#FFD700" opacity="0.6"/>
  <rect x="100" y="210" width="15" height="15" fill="#FFD700" opacity="0.6"/>
  <rect x="120" y="210" width="15" height="15" fill="#FFD700" opacity="0.6"/>
  
  <rect x="180" y="160" width="12" height="12" fill="#FFD700" opacity="0.6"/>
  <rect x="198" y="160" width="12" height="12" fill="#FFD700" opacity="0.6"/>
  <rect x="216" y="160" width="12" height="12" fill="#FFD700" opacity="0.6"/>
  <rect x="234" y="160" width="12" height="12" fill="#FFD700" opacity="0.6"/>
  
  <!-- City name overlay -->
  <rect x="0" y="320" width="800" height="80" fill="black" opacity="0.3"/>
  <text x="400" y="365" font-family="Arial, sans-serif" font-size="32" font-weight="bold" fill="white" text-anchor="middle">
    Cidade
  </text>
</svg>

